# xmcd
#
# Track frame offsets:
#	150
#	21616
#	44175
#	65093
#	80799
#	107956
#	114272
#	119924
#	123879
#	131097
#	145097
#	160163
#	173758
#	185809
#	194337
#	209339
#	225004
#	235044
#	252754
#	286507
#
# Disc length: 4044 seconds
# Revision: 0
# Processed by: cddbd v1.5.2PL0 Copyright (c) Steve Scherf et al.
# Submitted via: dBpowerAMP V12.0
#
DISCID=290fca14
DTITLE=Various Artist - 
DYEAR=2003
DGENRE=
TTITLE0=Gavin Sutherland - The lounge suite # 1 Change
TTITLE1=Gavin Sutherland - The lounge suite # 1 Remote control
TTITLE2=Gavin Sutherland - The lounge suite # 1 Loose mints
TTITLE3=David Fanshawe - Serenata (Mother and child)
TTITLE4=Reginald Hunt - Meditation
TTITLE5=Gilbert Vinter - Songs and dance # First song
TTITLE6=Gilbert Vinter - Songs and dance # First dance
TTITLE7=Gilbert Vinter - Songs and dance # Second song
TTITLE8=Gilbert Vinter - Songs and dance # Second dance
TTITLE9=Edward Elgar - Canto popolare (In the moonlight)
TTITLE10=Philip Lane - Three Spanish dances # Malaguena
TTITLE11=Philip Lane - Three Spanish dances # Habanera
TTITLE12=Philip Lane - Three Spanish dances # Tango
TTITLE13=Frederick Kell - A graceful tune
TTITLE14=Frederick Kell - A humorous fantasy
TTITLE15=Frederick Kell - An autumn tune
TTITLE16=Frederick Kell - Moods
TTITLE17=Terence Greaves - Clarinet cakewalk
TTITLE18=Gavin Sutherland - Nostalgia (The very thought of you, A nightingale song, Shine through my dreams)
TTITLE19=Jack Strachey - In party mood
EXTD=
EXTT0=
EXTT1=
EXTT2=
EXTT3=
EXTT4=
EXTT5=
EXTT6=
EXTT7=
EXTT8=
EXTT9=
EXTT10=
EXTT11=
EXTT12=
EXTT13=
EXTT14=
EXTT15=
EXTT16=
EXTT17=
EXTT18=
EXTT19=
PLAYORDER=
